# xmcd CD database file
#
# Track frame offsets:
#	183
#	13710
#	39498
#	42240
#	57678
#	86695
#	90313
#	102480
#	135475
#	138625
#	162293
#	183658
#	187475
#	198903
#	221568
#	224613
#	239928
#
# Disc length: 3420 seconds
#
# Revision: 0
# Processed by: cddbd v1.5.2PL0 Copyright (c) Steve Scherf et al.
# Submitted via: CDex 1.51
#
DISCID=0d0d5a11
DTITLE=Hein van de Geyn - Meets Lee Konitz
DYEAR=1990
DGENRE=Jazz
TTITLE0=Winter
TTITLE1=The Thrill of the Thought
TTITLE2=Winter Variation 1
TTITLE3=Every Breath I Take
TTITLE4=I Should Care
TTITLE5=Winter Variation 2
TTITLE6=Bass Blues
TTITLE7=Conversation in G
TTITLE8=Winter Variation 3
TTITLE9=Free Blues
TTITLE10=Sometime Ago
TTITLE11=Winter Variation 4
TTITLE12=My Funny Valentine
TTITLE13=Variations in Db
TTITLE14=Winter Variation 5
TTITLE15=Variations in Many Keys
TTITLE16=A-Fantasy
EXTD=YEAR: 1990
EXTT0=
EXTT1=
EXTT2=
EXTT3=
EXTT4=
EXTT5=
EXTT6=
EXTT7=
EXTT8=
EXTT9=
EXTT10=
EXTT11=
EXTT12=
EXTT13=
EXTT14=
EXTT15=
EXTT16=
PLAYORDER=
